<svg width="62" height="62" viewBox="0 0 62 62" fill="none" xmlns="http://www.w3.org/2000/svg">
<path fill-rule="evenodd" clip-rule="evenodd" d="M19.2846 2.754C22.3148 2.6145 23.281 2.5835 31 2.5835C38.719 2.5835 39.6851 2.61708 42.7128 2.754C45.7405 2.89091 47.8071 3.374 49.6155 4.07408C51.5091 4.78966 53.227 5.90825 54.6478 7.35491C56.0945 8.77316 57.2105 10.4885 57.9235 12.3847C58.6261 14.193 59.1066 16.2597 59.2461 19.2822C59.3856 22.3176 59.4166 23.2837 59.4166 31.0002C59.4166 38.7192 59.3831 39.6853 59.2461 42.7156C59.1092 45.7381 58.6261 47.8047 57.9235 49.6131C57.2105 51.5095 56.0926 53.2277 54.6478 54.648C53.227 56.0947 51.5091 57.2107 49.6155 57.9237C47.8071 58.6263 45.7405 59.1068 42.718 59.2463C39.6851 59.3858 38.719 59.4168 31 59.4168C23.281 59.4168 22.3148 59.3832 19.2846 59.2463C16.2621 59.1094 14.1954 58.6263 12.3871 57.9237C10.4907 57.2106 8.77252 56.0927 7.35215 54.648C5.90646 53.2289 4.78771 51.5115 4.0739 49.6157C3.37381 47.8073 2.89331 45.7407 2.75381 42.7182C2.61431 39.6827 2.58331 38.7166 2.58331 31.0002C2.58331 23.2812 2.6169 22.315 2.75381 19.2873C2.89073 16.2597 3.37381 14.193 4.0739 12.3847C4.78876 10.4887 5.90837 8.77139 7.35473 7.35233C8.77308 5.90696 10.4895 4.78822 12.3845 4.07408C14.1928 3.374 16.2595 2.8935 19.282 2.754H19.2846ZM42.4829 7.869C39.4862 7.73208 38.5872 7.70366 31 7.70366C23.4127 7.70366 22.5137 7.73208 19.5171 7.869C16.7451 7.99558 15.2416 8.458 14.2393 8.84808C12.9141 9.36475 11.966 9.977 10.9714 10.9716C10.0286 11.8888 9.30303 13.0054 8.8479 14.2395C8.45781 15.2418 7.9954 16.7453 7.86881 19.5172C7.7319 22.5139 7.70348 23.4129 7.70348 31.0002C7.70348 38.5874 7.7319 39.4864 7.86881 42.4831C7.9954 45.255 8.45781 46.7585 8.8479 47.7608C9.30256 48.9931 10.0285 50.1117 10.9714 51.0287C11.8885 51.9717 13.0071 52.6976 14.2393 53.1522C15.2416 53.5423 16.7451 54.0047 19.5171 54.1313C22.5137 54.2682 23.4101 54.2967 31 54.2967C38.5898 54.2967 39.4862 54.2682 42.4829 54.1313C45.2548 54.0047 46.7583 53.5423 47.7606 53.1522C49.0859 52.6356 50.034 52.0233 51.0286 51.0287C51.9715 50.1117 52.6974 48.9931 53.1521 47.7608C53.5421 46.7585 54.0046 45.255 54.1311 42.4831C54.2681 39.4864 54.2965 38.5874 54.2965 31.0002C54.2965 23.4129 54.2681 22.5139 54.1311 19.5172C54.0046 16.7453 53.5421 15.2418 53.1521 14.2395C52.6354 12.9142 52.0231 11.9662 51.0286 10.9716C50.1113 10.0288 48.9947 9.30329 47.7606 8.84808C46.7583 8.458 45.2548 7.99558 42.4829 7.869ZM27.3704 39.7602C29.3974 40.604 31.6545 40.7179 33.7562 40.0824C35.8579 39.447 37.6737 38.1015 38.8936 36.276C40.1135 34.4504 40.6618 32.2579 40.4448 30.073C40.2277 27.8881 39.2589 25.8463 37.7037 24.2964C36.7123 23.3056 35.5136 22.547 34.1938 22.0751C32.8741 21.6032 31.4661 21.4298 30.0713 21.5674C28.6764 21.705 27.3295 22.1501 26.1273 22.8707C24.9252 23.5914 23.8977 24.5696 23.119 25.7349C22.3403 26.9003 21.8296 28.2238 21.6238 29.6102C21.418 30.9966 21.5221 32.4114 21.9287 33.7527C22.3353 35.0941 23.0342 36.3286 23.9752 37.3674C24.9161 38.4061 26.0757 39.2234 27.3704 39.7602ZM20.6718 20.672C22.0281 19.3157 23.6383 18.2398 25.4104 17.5058C27.1825 16.7717 29.0819 16.3939 31 16.3939C32.9181 16.3939 34.8174 16.7717 36.5895 17.5058C38.3617 18.2398 39.9718 19.3157 41.3281 20.672C42.6845 22.0283 43.7603 23.6385 44.4944 25.4106C45.2284 27.1827 45.6062 29.082 45.6062 31.0002C45.6062 32.9183 45.2284 34.8176 44.4944 36.5897C43.7603 38.3618 42.6845 39.972 41.3281 41.3283C38.5889 44.0675 34.8738 45.6064 31 45.6064C27.1262 45.6064 23.411 44.0675 20.6718 41.3283C17.9326 38.5891 16.3937 34.874 16.3937 31.0002C16.3937 27.1263 17.9326 23.4112 20.6718 20.672ZM48.8456 18.5692C49.1818 18.2521 49.4508 17.8708 49.6369 17.4479C49.823 17.025 49.9224 16.5691 49.9291 16.1071C49.9359 15.6451 49.8498 15.1864 49.6761 14.7583C49.5024 14.3301 49.2446 13.9411 48.9179 13.6144C48.5912 13.2877 48.2022 13.0299 47.7741 12.8562C47.3459 12.6825 46.8872 12.5964 46.4252 12.6032C45.9632 12.6099 45.5073 12.7093 45.0844 12.8954C44.6615 13.0815 44.2802 13.3506 43.9631 13.6867C43.3465 14.3403 43.0089 15.2086 43.022 16.1071C43.0351 17.0056 43.3979 17.8636 44.0333 18.499C44.6687 19.1344 45.5267 19.4972 46.4252 19.5103C47.3237 19.5234 48.192 19.1858 48.8456 18.5692Z" fill="white"/>
</svg>
