<svg width="62" height="62" viewBox="0 0 62 62" fill="none" xmlns="http://www.w3.org/2000/svg">
<path d="M58.125 30.8303C58.125 30.6971 58.125 30.5457 58.1189 30.3701C58.1129 29.8797 58.1008 29.3287 58.0887 28.7414C58.0402 27.0521 57.9555 25.3689 57.8223 23.7826C57.6406 21.5969 57.3742 19.7744 57.0109 18.4061C56.6276 16.9781 55.8761 15.6757 54.8317 14.6291C53.7872 13.5826 52.4864 12.8285 51.0592 12.4422C49.3457 11.982 45.9914 11.6975 41.2687 11.5219C39.0225 11.4371 36.6187 11.3826 34.215 11.3523C33.3734 11.3402 32.5924 11.3342 31.89 11.3281H30.11C29.4076 11.3342 28.6266 11.3402 27.785 11.3523C25.3813 11.3826 22.9775 11.4371 20.7312 11.5219C16.0086 11.7035 12.6482 11.9881 10.9408 12.4422C9.51313 12.8275 8.21179 13.5813 7.1672 14.628C6.12261 15.6747 5.37148 16.9776 4.98906 18.4061C4.61973 19.7744 4.35938 21.5969 4.17773 23.7826C4.04453 25.3689 3.95977 27.0521 3.91133 28.7414C3.89316 29.3287 3.88711 29.8797 3.88105 30.3701C3.88105 30.5457 3.875 30.6971 3.875 30.8303V31.1693C3.875 31.3025 3.875 31.4539 3.88105 31.6295C3.88711 32.1199 3.89922 32.6709 3.91133 33.2582C3.95977 34.9475 4.04453 36.6307 4.17773 38.217C4.35938 40.4027 4.62578 42.2252 4.98906 43.5936C5.76406 46.4937 8.04062 48.7824 10.9408 49.5574C12.6482 50.0176 16.0086 50.3021 20.7312 50.4777C22.9775 50.5625 25.3813 50.617 27.785 50.6473C28.6266 50.6594 29.4076 50.6654 30.11 50.6715H31.89C32.5924 50.6654 33.3734 50.6594 34.215 50.6473C36.6187 50.617 39.0225 50.5625 41.2687 50.4777C45.9914 50.2961 49.3518 50.0115 51.0592 49.5574C53.9594 48.7824 56.2359 46.4998 57.0109 43.5936C57.3803 42.2252 57.6406 40.4027 57.8223 38.217C57.9555 36.6307 58.0402 34.9475 58.0887 33.2582C58.1068 32.6709 58.1129 32.1199 58.1189 31.6295C58.1189 31.4539 58.125 31.3025 58.125 31.1693V30.8303ZM53.7656 31.1451C53.7656 31.2723 53.7656 31.4115 53.7596 31.575C53.7535 32.0473 53.7414 32.568 53.7293 33.1311C53.6869 34.7416 53.6021 36.3521 53.475 37.8477C53.3115 39.7973 53.0814 41.3957 52.7969 42.4674C52.4215 43.866 51.3195 44.974 49.927 45.3434C48.6555 45.6824 45.4525 45.9549 41.0992 46.1184C38.8953 46.2031 36.5219 46.2576 34.1545 46.2879C33.325 46.3 32.5561 46.306 31.8658 46.306H30.1342L27.8455 46.2879C25.4781 46.2576 23.1107 46.2031 20.9008 46.1184C16.5475 45.9488 13.3385 45.6824 12.073 45.3434C10.6805 44.968 9.57852 43.866 9.20312 42.4674C8.91855 41.3957 8.68848 39.7973 8.525 37.8477C8.39785 36.3521 8.31914 34.7416 8.2707 33.1311C8.25254 32.568 8.24648 32.0412 8.24043 31.575C8.24043 31.4115 8.23438 31.2662 8.23438 31.1451V30.8545C8.23438 30.7273 8.23438 30.5881 8.24043 30.4246C8.24648 29.9523 8.25859 29.4316 8.2707 28.8686C8.31309 27.258 8.39785 25.6475 8.525 24.152C8.68848 22.2023 8.91855 20.6039 9.20312 19.5322C9.57852 18.1336 10.6805 17.0256 12.073 16.6562C13.3445 16.3172 16.5475 16.0447 20.9008 15.8812C23.1047 15.7965 25.4781 15.742 27.8455 15.7117C28.675 15.6996 29.4439 15.6936 30.1342 15.6936H31.8658L34.1545 15.7117C36.5219 15.742 38.8893 15.7965 41.0992 15.8812C45.4525 16.0508 48.6615 16.3172 49.927 16.6562C51.3195 17.0316 52.4215 18.1336 52.7969 19.5322C53.0814 20.6039 53.3115 22.2023 53.475 24.152C53.6021 25.6475 53.6809 27.258 53.7293 28.8686C53.7475 29.4316 53.7535 29.9584 53.7596 30.4246C53.7596 30.5881 53.7656 30.7334 53.7656 30.8545V31.1451ZM25.6113 39.1131L39.6582 30.9393L25.6113 22.8865V39.1131Z" fill="white"/>
</svg>
